<?xml version="1.0" standalone="no"?>
<!DOCTYPE svg PUBLIC "-//W3C//DTD SVG 20010904//EN"
 "http://www.w3.org/TR/2001/REC-SVG-20010904/DTD/svg10.dtd">
<svg version="1.0" xmlns="http://www.w3.org/2000/svg"
 width="520.000000pt" height="606.000000pt" viewBox="0 0 520.000000 606.000000"
 preserveAspectRatio="xMidYMid meet">

<g transform="translate(0.000000,606.000000) scale(0.100000,-0.100000)"
fill="#000000" stroke="none">
<path d="M1300 5296 l-1295 -754 0 -1512 0 -1512 1295 -754 c712 -415 1297
-754 1300 -754 3 0 588 339 1300 754 l1295 754 0 1512 0 1512 -1295 754 c-712
415 -1297 754 -1300 754 -3 0 -588 -339 -1300 -754z m2585 -38 l1275 -742 0
-1486 0 -1486 -1261 -734 c-693 -404 -1271 -739 -1283 -744 -19 -7 -217 105
-1299 735 l-1277 743 0 1486 0 1486 1273 741 c699 408 1278 742 1285 742 7 1
586 -333 1287 -741z"/>
<path d="M2190 4575 l0 -215 35 0 35 0 0 215 0 215 -35 0 -35 0 0 -215z"/>
<path d="M3396 4777 c-36 -26 4 -84 42 -61 23 15 22 44 -4 60 -17 12 -23 12
-38 1z"/>
<path d="M1718 4728 c-23 -8 -28 -16 -28 -44 0 -30 -3 -34 -25 -34 -20 0 -25
-5 -25 -25 0 -20 5 -25 25 -25 l25 0 0 -100 c0 -94 2 -103 25 -125 25 -26 76
-33 103 -16 17 10 11 47 -7 43 -7 -1 -22 0 -32 3 -17 6 -19 17 -19 101 l0 94
35 0 c31 0 35 3 35 25 0 22 -4 25 -35 25 -35 0 -35 0 -35 45 0 48 -1 49 -42
33z"/>
<path d="M3218 4728 c-23 -8 -28 -16 -28 -44 0 -30 -3 -34 -25 -34 -20 0 -25
-5 -25 -25 0 -20 5 -25 25 -25 l25 0 0 -100 c0 -94 2 -103 25 -125 25 -26 76
-33 103 -16 17 10 11 47 -7 43 -7 -1 -22 0 -32 3 -17 6 -19 17 -19 101 l0 94
35 0 c31 0 35 3 35 25 0 22 -4 25 -35 25 -35 0 -35 0 -35 45 0 48 -1 49 -42
33z"/>
<path d="M880 4653 c-8 -3 -25 -15 -37 -26 l-23 -20 0 21 c0 18 -6 22 -30 22
l-30 0 0 -210 0 -210 30 0 30 0 0 80 0 80 33 -20 c91 -56 186 16 187 143 0
105 -75 171 -160 140z m65 -68 c19 -18 25 -35 25 -70 0 -82 -42 -128 -99 -110
-57 18 -67 138 -16 182 34 30 60 29 90 -2z"/>
<path d="M1171 4643 c-58 -30 -76 -65 -76 -144 0 -66 1 -70 38 -106 35 -36 41
-38 101 -38 79 0 112 21 140 87 26 63 16 128 -28 176 -28 30 -40 36 -87 39
-39 3 -64 -1 -88 -14z m102 -44 c30 -14 47 -48 47 -94 0 -76 -51 -120 -110
-95 -39 16 -50 37 -50 97 1 50 11 72 45 91 25 14 38 15 68 1z"/>
<path d="M1546 4630 l-26 -32 0 26 c0 22 -4 26 -30 26 l-30 0 0 -145 0 -145
30 0 30 0 0 73 c0 125 22 167 85 167 23 0 26 4 23 28 -5 41 -47 43 -82 2z"/>
<path d="M1923 4645 c-25 -11 -33 -20 -33 -40 0 -29 -1 -29 36 -10 55 29 114
15 114 -27 0 -12 -11 -19 -37 -23 -21 -4 -50 -9 -64 -11 -72 -13 -100 -113
-46 -160 35 -30 85 -31 121 -3 21 17 26 18 26 5 0 -12 10 -16 35 -16 l35 0 0
105 c0 121 -15 170 -55 185 -37 14 -94 12 -132 -5z m117 -175 c0 -36 -31 -70
-63 -70 -31 0 -47 18 -47 52 0 32 23 46 78 47 29 1 32 -2 32 -29z"/>
<path d="M2404 4641 c-69 -42 -96 -113 -73 -191 22 -74 98 -114 178 -94 31 8
36 14 39 41 l3 32 -30 -15 c-44 -22 -88 -10 -112 29 -52 86 16 187 107 159 33
-10 34 -9 34 18 0 16 -7 30 -16 34 -32 12 -100 5 -130 -13z"/>
<path d="M2653 4645 c-25 -11 -33 -20 -33 -40 0 -29 -1 -29 36 -10 55 29 114
15 114 -27 0 -12 -11 -19 -37 -23 -21 -4 -50 -9 -64 -11 -72 -13 -100 -113
-46 -160 35 -30 85 -31 121 -3 21 17 26 18 26 5 0 -12 10 -16 35 -16 l35 0 0
105 c0 121 -15 170 -55 185 -37 14 -94 12 -132 -5z m117 -175 c0 -36 -31 -70
-63 -70 -31 0 -47 18 -47 52 0 32 23 46 78 47 29 1 32 -2 32 -29z"/>
<path d="M2955 4646 c-29 -12 -55 -51 -55 -80 0 -26 42 -66 91 -87 39 -17 49
-26 49 -45 0 -35 -62 -45 -122 -19 -26 11 -24 -41 1 -55 56 -30 167 2 184 53
16 48 -7 83 -74 114 -61 28 -73 49 -44 73 10 8 31 11 60 7 42 -6 45 -5 45 17
0 13 -7 27 -16 30 -26 10 -87 6 -119 -8z"/>
<path d="M3636 4639 c-21 -17 -26 -18 -26 -5 0 12 -10 16 -35 16 l-35 0 0
-145 0 -145 35 0 35 0 0 105 c0 92 3 108 20 125 11 11 29 20 40 20 11 0 29 -9
40 -20 17 -17 20 -33 20 -125 l0 -105 36 0 36 0 -4 118 c-2 78 -8 124 -18 139
-29 46 -100 57 -144 22z"/>
<path d="M3924 4641 c-44 -27 -68 -93 -62 -167 4 -51 9 -61 43 -92 34 -31 42
-34 82 -29 24 2 53 13 63 22 20 18 20 17 20 -18 0 -69 -67 -102 -148 -74 l-42
15 0 -29 c0 -35 8 -40 79 -46 44 -4 68 -1 102 14 71 31 79 58 79 252 l0 161
-35 0 c-19 0 -35 -4 -35 -9 0 -6 -12 -3 -27 5 -38 19 -82 18 -119 -5z m109
-40 c54 -21 60 -142 10 -181 -34 -27 -59 -25 -88 5 -20 19 -25 34 -25 75 0 59
12 87 43 100 29 12 32 12 60 1z"/>
<path d="M3380 4505 l0 -145 35 0 35 0 0 145 0 145 -35 0 -35 0 0 -145z"/>
<path d="M2626 3981 c-9 -13 -10 -156 -2 -169 4 -7 17 -12 30 -12 34 0 72 -48
90 -114 10 -32 16 -59 14 -60 -2 -1 -10 -7 -19 -14 -9 -7 -42 -19 -72 -27 -30
-8 -70 -23 -89 -35 -18 -11 -42 -20 -53 -21 -23 -1 -106 -37 -88 -38 7 -1 28
7 48 16 31 15 37 15 45 3 7 -11 10 -11 10 -2 0 16 116 72 150 72 14 0 34 7 44
15 11 8 29 13 40 9 17 -4 18 -3 6 5 -11 8 2 11 51 10 37 -1 71 1 77 5 9 6 -37
94 -100 191 -28 43 -155 175 -168 175 -5 0 -11 -4 -14 -9z"/>
<path d="M2250 3643 c-74 -24 -94 -60 -85 -148 l7 -64 -28 -6 c-155 -32 -253
-65 -286 -97 -14 -13 -54 -45 -90 -73 -56 -43 -96 -88 -143 -164 -39 -62 -115
-169 -129 -180 -9 -7 -16 -19 -16 -25 0 -6 -10 -29 -21 -51 -13 -23 -23 -63
-24 -95 -2 -30 -7 -80 -11 -110 -4 -30 -8 -106 -8 -167 -1 -62 -2 -113 -3
-113 -1 0 -29 16 -62 35 -63 37 -215 95 -250 95 -11 0 -23 4 -26 10 -3 6 -19
10 -34 10 -15 0 -31 3 -35 7 -4 5 -11 8 -14 8 -40 3 -108 19 -130 31 -15 7
-34 14 -43 14 -50 0 -139 70 -139 108 0 17 -15 15 -30 -3 -43 -52 57 -162 170
-186 179 -38 395 -115 478 -170 112 -76 133 -92 142 -108 5 -10 7 -21 3 -24
-9 -10 45 -171 67 -200 11 -14 20 -30 20 -36 0 -6 11 -16 25 -23 26 -11 55
-63 55 -96 0 -25 46 -163 57 -171 23 -16 48 -99 46 -150 -2 -50 1 -58 32 -93
19 -21 35 -45 35 -54 0 -24 24 -11 30 17 7 30 32 31 45 2 13 -30 17 -29 38 8
17 30 20 31 62 26 25 -4 45 -4 45 -1 0 18 -31 57 -90 114 -87 85 -99 105 -111
187 -5 37 -12 80 -15 94 -4 24 -2 27 28 32 38 7 177 42 225 58 18 5 42 12 55
14 13 3 37 12 54 21 17 10 39 14 48 11 19 -7 57 -89 93 -202 18 -57 46 -109
94 -179 38 -55 69 -105 69 -113 0 -30 20 -10 26 27 7 46 10 47 44 20 14 -11
30 -20 37 -20 6 0 14 -6 17 -12 3 -7 4 6 1 30 -5 36 -3 42 14 42 10 0 31 -10
46 -22 l28 -22 -7 27 c-5 22 -4 25 11 20 16 -6 17 -5 3 11 -8 10 -19 28 -25
40 -6 11 -26 28 -45 36 -100 43 -156 77 -175 107 -105 168 -97 151 -93 221 4
63 6 67 49 104 24 21 48 42 52 47 22 24 58 59 88 84 l32 28 26 -24 c14 -13 50
-38 79 -56 28 -18 52 -35 52 -38 0 -2 -25 -1 -55 2 -47 6 -55 5 -55 -9 0 -13
13 -16 78 -16 67 0 82 -3 98 -21 10 -11 34 -28 54 -37 19 -9 38 -18 43 -20 4
-2 7 6 7 18 0 20 1 20 22 6 39 -28 50 -21 45 28 l-5 43 44 10 c24 6 44 10 44
9 0 -1 -4 -17 -10 -36 -12 -42 -6 -66 19 -73 10 -2 20 -16 23 -30 5 -25 4 -25
-46 -24 -28 1 -57 8 -64 15 -22 20 -30 14 -34 -29 -4 -40 -3 -40 27 -35 50 9
125 16 210 20 45 3 81 9 83 15 2 6 8 9 13 5 5 -3 16 10 23 28 13 29 12 35 -1
50 -9 10 -20 15 -25 12 -4 -3 -7 0 -6 7 2 7 -18 24 -43 37 -45 23 -48 24 -82
7 -20 -9 -38 -24 -40 -33 -3 -10 -5 0 -6 20 -1 35 1 37 37 43 20 3 75 13 122
22 47 8 143 16 216 16 73 1 131 4 129 7 -2 3 18 6 43 7 26 0 70 6 97 12 44 9
126 23 221 38 18 3 34 0 38 -5 4 -6 -3 -8 -16 -6 -21 4 -21 4 -3 -5 12 -5 24
-5 29 0 6 5 21 10 35 10 24 1 24 2 -4 8 -28 7 -27 8 20 15 71 12 105 16 235
27 79 7 138 18 189 36 44 16 94 26 122 26 27 0 46 3 43 8 -7 11 72 12 111 1
35 -10 58 -5 49 10 -4 6 -3 8 3 5 9 -6 158 15 207 28 17 5 18 4 6 -5 -13 -10
-13 -11 0 -7 8 2 16 13 18 25 3 20 2 20 -55 7 -32 -7 -130 -18 -218 -24 -88
-6 -187 -18 -220 -27 -124 -34 -221 -53 -264 -54 -43 0 -163 -16 -331 -45
-235 -40 -358 -57 -490 -65 -132 -9 -215 -18 -325 -35 -36 -6 -38 -5 -22 8 23
19 37 69 37 134 0 49 -2 53 -46 89 -38 32 -44 41 -39 62 5 22 4 24 -9 13 -19
-16 -39 -4 -33 19 3 12 0 17 -8 14 -7 -3 -22 13 -35 38 l-22 43 5 -45 c5 -38
4 -42 -7 -28 -9 12 -11 36 -8 69 4 43 2 50 -9 44 -12 -7 -12 -6 -1 7 10 13 4
24 -44 72 -31 31 -61 56 -68 56 -28 1 -67 53 -119 160 -31 63 -60 135 -66 160
-34 161 -43 235 -38 295 4 36 3 65 -2 65 -26 0 -83 -28 -131 -65 -30 -23 -75
-51 -100 -63 -25 -12 -61 -33 -80 -47 -44 -32 -48 -32 -42 7 5 32 110 164 170
214 24 20 24 21 8 51 -9 18 -14 38 -12 45 2 7 7 27 10 44 5 31 3 32 -39 43
-45 11 -89 13 -115 4z m642 -1265 c10 -18 22 -45 28 -61 5 -16 24 -34 45 -44
35 -17 43 -27 26 -37 -4 -3 -2 -26 7 -51 8 -25 13 -47 11 -49 -2 -2 -21 -6
-42 -9 -33 -5 -39 -3 -52 22 -14 27 -34 40 -193 121 -58 30 -79 59 -38 52 10
-2 29 9 42 24 34 36 126 85 139 74 5 -5 18 -23 27 -42z"/>
<path d="M3000 3560 c-8 -5 -34 -10 -57 -10 -23 0 -45 -5 -48 -11 -4 -6 -13
-8 -21 -5 -8 3 -27 1 -42 -5 -63 -26 -111 -50 -122 -64 -7 -8 -20 -15 -30 -15
-10 0 -31 -13 -48 -28 -42 -40 -49 -100 -23 -227 11 -55 22 -118 26 -140 3
-22 34 -95 68 -163 54 -108 67 -127 107 -152 61 -39 85 -61 99 -88 9 -17 18
-21 33 -16 13 4 18 2 14 -4 -7 -12 11 -10 94 12 34 9 57 11 61 5 3 -6 11 -3
19 6 17 21 44 20 36 -2 -4 -10 4 -6 20 10 28 28 51 37 38 15 -4 -7 6 2 23 20
34 36 48 41 39 15 -4 -10 5 -4 18 12 21 25 27 27 35 15 9 -12 11 -12 17 3 11
30 27 19 21 -15 -6 -33 -6 -33 15 7 12 22 23 34 26 27 3 -10 7 -10 18 -1 11 9
14 8 14 -2 0 -10 2 -11 8 -2 4 6 32 22 62 36 70 31 91 54 135 151 28 61 33 81
24 92 -6 8 -9 14 -6 14 13 0 -60 67 -86 80 l-28 14 23 19 c22 17 22 18 1 8
-33 -16 -56 -14 -49 5 4 10 1 14 -6 11 -14 -4 -75 35 -118 75 -79 75 -203 170
-251 194 -70 35 -115 74 -111 97 4 19 -23 23 -48 7z"/>
<path d="M4020 3485 c-14 -8 -20 -14 -14 -15 5 0 19 7 30 15 24 18 16 19 -16
0z"/>
<path d="M3970 3460 c-9 -6 -10 -10 -3 -10 6 0 15 5 18 10 8 12 4 12 -15 0z"/>
<path d="M3867 3404 c-16 -9 -27 -18 -24 -20 3 -3 20 4 38 15 39 24 28 28 -14
5z"/>
<path d="M3744 3324 c-18 -14 -18 -15 4 -4 12 6 22 13 22 15 0 8 -5 6 -26 -11z"/>
<path d="M3254 2654 c-8 -20 -13 -38 -11 -40 2 -2 11 14 20 36 19 50 12 53 -9
4z"/>
<path d="M3462 2655 c0 -16 2 -22 5 -12 2 9 2 23 0 30 -3 6 -5 -1 -5 -18z"/>
<path d="M3195 2630 c-9 -16 -13 -30 -11 -30 3 0 12 14 21 30 9 17 13 30 11
30 -3 0 -12 -13 -21 -30z"/>
<path d="M3139 2613 c-13 -16 -12 -17 4 -4 16 13 21 21 13 21 -2 0 -10 -8 -17
-17z"/>
<path d="M3226 2585 c-3 -9 -6 -24 -5 -33 0 -9 5 -4 10 12 9 32 6 48 -5 21z"/>
<path d="M3291 2574 c0 -11 3 -14 6 -6 3 7 2 16 -1 19 -3 4 -6 -2 -5 -13z"/>
<path d="M3472 2560 c0 -14 2 -19 5 -12 2 6 2 18 0 25 -3 6 -5 1 -5 -13z"/>
<path d="M3137 2519 c-15 -27 -25 -49 -22 -49 6 0 58 90 54 95 -2 2 -16 -19
-32 -46z"/>
<path d="M3386 2539 c-3 -17 -5 -46 -5 -63 1 -18 5 -7 10 28 9 63 6 88 -5 35z"/>
<path d="M3281 2534 c0 -11 3 -14 6 -6 3 7 2 16 -1 19 -3 4 -6 -2 -5 -13z"/>
<path d="M3066 2493 c-6 -14 -5 -15 5 -6 7 7 10 15 7 18 -3 3 -9 -2 -12 -12z"/>
<path d="M3272 2480 c0 -14 2 -19 5 -12 2 6 2 18 0 25 -3 6 -5 1 -5 -13z"/>
<path d="M3321 2474 c0 -11 3 -14 6 -6 3 7 2 16 -1 19 -3 4 -6 -2 -5 -13z"/>
<path d="M3482 2440 c0 -19 2 -27 5 -17 2 9 2 25 0 35 -3 9 -5 1 -5 -18z"/>
<path d="M3186 2434 c-4 -9 -4 -19 -1 -22 2 -3 7 3 11 12 4 9 4 19 1 22 -2 3
-7 -3 -11 -12z"/>
<path d="M3269 2440 c-3 -8 -6 -42 -7 -75 l0 -60 9 45 c10 48 8 116 -2 90z"/>
<path d="M3312 2400 c0 -19 2 -27 5 -17 2 9 2 25 0 35 -3 9 -5 1 -5 -18z"/>
<path d="M3373 2380 c0 -25 2 -35 4 -22 2 12 2 32 0 45 -2 12 -4 2 -4 -23z"/>
<path d="M4958 2343 c7 -3 16 -2 19 1 4 3 -2 6 -13 5 -11 0 -14 -3 -6 -6z"/>
<path d="M4875 2330 l-50 -7 45 -1 c25 -1 52 3 60 8 8 5 11 9 5 8 -5 -1 -32
-4 -60 -8z"/>
<path d="M4678 2313 c6 -2 18 -2 25 0 6 3 1 5 -13 5 -14 0 -19 -2 -12 -5z"/>
<path d="M4510 2290 c-8 -5 -10 -10 -5 -10 6 0 17 5 25 10 8 5 11 10 5 10 -5
0 -17 -5 -25 -10z"/>
<path d="M4058 2213 c6 -2 18 -2 25 0 6 3 1 5 -13 5 -14 0 -19 -2 -12 -5z"/>
<path d="M1148 1695 c-3 -3 -52 -5 -109 -6 -185 -2 -284 -31 -263 -78 4 -9 9
-33 10 -54 1 -44 20 -70 33 -48 6 9 29 12 82 10 41 -2 80 0 87 5 7 4 19 3 27
-4 8 -6 23 -9 34 -5 16 5 21 1 26 -22 19 -91 16 -87 70 -86 39 2 45 0 25 -7
-24 -8 -24 -8 -2 -9 39 -2 61 31 60 89 -1 52 15 78 37 60 13 -11 108 -16 123
-6 7 4 25 5 41 1 19 -4 30 -2 33 7 9 22 -8 119 -21 127 -7 5 -13 12 -14 17 -3
12 -160 5 -168 -8 -4 -6 -8 -6 -10 -1 -4 10 -93 26 -101 18z m32 -143 c0 -17
-25 -25 -55 -18 -40 10 -30 31 15 31 26 0 40 -4 40 -13z"/>
<path d="M831 1464 c0 -11 3 -14 6 -6 3 7 2 16 -1 19 -3 4 -6 -2 -5 -13z"/>
<path d="M1452 1450 c0 -14 2 -19 5 -12 2 6 2 18 0 25 -3 6 -5 1 -5 -13z"/>
<path d="M1315 1390 c-3 -5 -1 -10 4 -10 6 0 11 5 11 10 0 6 -2 10 -4 10 -3 0
-8 -4 -11 -10z"/>
<path d="M1355 1390 c3 -5 11 -10 16 -10 6 0 7 5 4 10 -3 6 -11 10 -16 10 -6
0 -7 -4 -4 -10z"/>
<path d="M1315 1360 c-3 -5 -1 -10 4 -10 6 0 11 5 11 10 0 6 -2 10 -4 10 -3 0
-8 -4 -11 -10z"/>
<path d="M1350 1359 c0 -5 5 -7 10 -4 6 3 10 8 10 11 0 2 -4 4 -10 4 -5 0 -10
-5 -10 -11z"/>
<path d="M968 1323 c7 -3 16 -2 19 1 4 3 -2 6 -13 5 -11 0 -14 -3 -6 -6z"/>
<path d="M1133 1313 c15 -2 37 -2 50 0 12 2 0 4 -28 4 -27 0 -38 -2 -22 -4z"/>
<path d="M1257 1313 c18 -2 50 -2 70 0 21 2 7 4 -32 4 -38 0 -55 -2 -38 -4z"/>
<path d="M1398 1313 c7 -3 16 -2 19 1 4 3 -2 6 -13 5 -11 0 -14 -3 -6 -6z"/>
<path d="M1058 1303 c7 -3 16 -2 19 1 4 3 -2 6 -13 5 -11 0 -14 -3 -6 -6z"/>
</g>
</svg>
